<?xml version="1.0" encoding="UTF-8"?>
<!DOCTYPE svg PUBLIC "-//W3C//DTD SVG 1.0//EN" "http://www.w3.org/TR/2001/REC-SVG-20010904/DTD/svg10.dtd">
<!-- Creator: CorelDRAW -->
<svg xmlns="http://www.w3.org/2000/svg" xml:space="preserve" width="128px" height="128px" version="1.0" shape-rendering="geometricPrecision" text-rendering="geometricPrecision" image-rendering="optimizeQuality" fill-rule="evenodd" clip-rule="evenodd"
viewBox="0 0 128 128"
 xmlns:xlink="http://www.w3.org/1999/xlink"
 xmlns:xodm="http://www.corel.com/coreldraw/odm/2003">
 <g id="Слой_x0020_1">
  <metadata id="CorelCorpID_0Corel-Layer"/>
  <path fill="#2B2A29" fill-rule="nonzero" d="M36.25 36.19c2,-2.6 4.05,-4.05 6.15,-4.35 2.1,-0.3 3.9,0.1 5.4,1.2 1.5,1.1 2.35,2.75 2.55,4.95 0.2,2.2 -0.7,4.6 -2.7,7.2 -3.2,4.2 -5.45,8.45 -6.75,12.75 -1.3,4.3 -1.95,8.25 -1.95,11.85l-0.9 -6c5.2,0 9.4,1.45 12.6,4.35 3.2,2.9 4.8,6.85 4.8,11.85 0,4.8 -1.5,8.75 -4.5,11.85 -3,3.1 -6.9,4.65 -11.7,4.65 -5.2,0 -9.25,-1.75 -12.15,-5.25 -2.9,-3.5 -4.35,-8.55 -4.35,-15.15 0,-4.2 0.35,-8.55 1.05,-13.05 0.7,-4.5 2.1,-9.05 4.2,-13.65 2.1,-4.6 4.85,-9 8.25,-13.2zm49.8 0c2,-2.6 4.05,-4.05 6.15,-4.35 2.1,-0.3 3.9,0.1 5.4,1.2 1.5,1.1 2.35,2.75 2.55,4.95 0.2,2.2 -0.7,4.6 -2.7,7.2 -3.2,4.2 -5.45,8.45 -6.75,12.75 -1.3,4.3 -1.95,8.25 -1.95,11.85l-0.9 -6c5.2,0 9.4,1.45 12.6,4.35 3.2,2.9 4.8,6.85 4.8,11.85 0,4.8 -1.5,8.75 -4.5,11.85 -3,3.1 -6.9,4.65 -11.7,4.65 -5.2,0 -9.25,-1.75 -12.15,-5.25 -2.9,-3.5 -4.35,-8.55 -4.35,-15.15 0,-4.2 0.35,-8.55 1.05,-13.05 0.7,-4.5 2.1,-9.05 4.2,-13.65 2.1,-4.6 4.85,-9 8.25,-13.2z"/>
 </g>
</svg>
