<?xml version="1.0" encoding="UTF-8"?>
<!DOCTYPE svg PUBLIC "-//W3C//DTD SVG 1.1//EN" "http://www.w3.org/Graphics/SVG/1.1/DTD/svg11.dtd">
<!-- Creator: CorelDRAW -->
<svg xmlns="http://www.w3.org/2000/svg" xml:space="preserve" width="1000px" height="1000px" version="1.1" style="shape-rendering:geometricPrecision; text-rendering:geometricPrecision; image-rendering:optimizeQuality; fill-rule:evenodd; clip-rule:evenodd"
viewBox="0 0 1000 1000"
 xmlns:xlink="http://www.w3.org/1999/xlink"
 xmlns:xodm="http://www.corel.com/coreldraw/odm/2003">
 <defs>
  <style type="text/css">
   <![CDATA[
    .str0 {stroke:#1E1E1E;stroke-width:75;stroke-miterlimit:22.9256}
    .fil2 {fill:none}
    .fil1 {fill:#1E1E1E}
    .fil0 {fill:white}
   ]]>
  </style>
    <clipPath id="id0">
     <path d="M494 42c-249,0 -450,201 -450,450 0,249 201,450 450,450 249,0 450,-201 450,-450 0,-249 -201,-450 -450,-450z"/>
    </clipPath>
 </defs>
 <g id="Слой_x0020_1">
  <metadata id="CorelCorpID_0Corel-Layer"/>
  <g>
   <g style="clip-path:url(#id0)">
    <polygon class="fil0" points="944,942 269,942 269,42 944,42 "/>
    <polygon id="_1" class="fil1" points="494,942 44,942 44,42 494,42 "/>
   </g>
   <path id="_2" class="fil2 str0" d="M494 42c-249,0 -450,201 -450,450 0,249 201,450 450,450 249,0 450,-201 450,-450 0,-249 -201,-450 -450,-450z"/>
  </g>
 </g>
</svg>
