<svg width="64" height="64" viewBox="0 0 64 64" fill="none" xmlns="http://www.w3.org/2000/svg">
<rect x="0.5" y="0.5" width="63" height="63" rx="7.5" fill="white" stroke="#0B1F33"/>
<path d="M51.7983 24.5955C51.6252 22.328 49.8944 19.4209 48.1637 18.0255C46.2174 16.5975 44.1951 15.2777 42.106 14.0719C40.0326 12.8335 37.895 11.7078 35.7021 10.6997C34.5308 10.2182 33.2747 9.98085 32.0098 10.002C30.7445 9.97525 29.4873 10.2128 28.3175 10.6997C26.1251 11.7085 23.9874 12.8341 21.9137 14.0719C18.5675 16.1069 15.856 18.0255 15.856 18.0255C14.415 19.2409 13.3277 20.8095 12.6878 22.5643C12.5734 22.8782 12.8134 23.1999 13.1475 23.1999H15.9136C16.2852 23.1999 16.6221 22.9913 16.817 22.675C17.3097 21.8754 17.9307 21.1535 18.662 20.5409C18.662 20.5409 20.9008 18.9676 23.6637 17.299C25.3759 16.284 27.1409 15.3609 28.9512 14.5338C29.917 14.1345 30.9551 13.9397 31.9998 13.9616C33.0442 13.9443 34.0813 14.1389 35.0485 14.5338C36.8591 15.3603 38.6241 16.2834 40.336 17.299C42.061 18.2877 43.7307 19.3699 45.3377 20.5409C46.7668 21.6851 48.1958 24.0689 48.3387 25.9283C48.3387 25.9283 48.6722 28.6935 48.7198 31.9688C48.7169 33.9916 48.6056 36.0128 48.3864 38.0237C48.054 40.1292 46.971 42.043 45.3377 43.411C45.3377 43.411 43.0989 45.032 40.336 46.7007C38.6238 47.7157 36.8588 48.6387 35.0485 49.4659C34.0826 49.8652 33.0446 50.06 31.9998 50.038C30.9564 50.0599 29.9194 49.8702 28.9512 49.4802C27.1406 48.6536 25.3756 47.7305 23.6637 46.715C20.9008 45.094 18.662 43.4253 18.662 43.4253C18.0246 42.9151 17.3873 42.1582 16.8599 41.3113C16.6667 41.0012 16.3336 40.7998 15.9682 40.7998H13.1592C12.8208 40.7998 12.581 41.1287 12.7057 41.4433C13.3975 43.1888 14.6268 44.9423 15.856 45.9334C15.856 45.9334 18.5675 47.9683 21.9137 49.9451C23.987 51.1836 26.1247 52.3093 28.3175 53.3173C29.4901 53.7929 30.7461 54.0243 32.0098 53.9976C33.2752 54.0244 34.5324 53.7868 35.7021 53.2999C37.8946 52.2911 40.0323 51.1655 42.106 49.9277C45.4521 47.8927 48.1637 45.9159 48.1637 45.9159C50.1418 44.2475 51.4534 41.9137 51.856 39.346C52.1215 36.8937 52.2563 34.4288 52.2598 31.962C52.2021 27.9677 51.7983 24.5955 51.7983 24.5955Z" fill="url(#paint0_linear_119_2308)"/>
<path d="M11.76 27.1622C11.76 26.6762 12.154 26.2822 12.64 26.2822H26.28C26.766 26.2822 27.16 26.6762 27.16 27.1622V29.8022C27.16 30.2882 26.766 30.6822 26.28 30.6822H11.76V27.1622Z" fill="#0066B3"/>
<path d="M11.7598 33.3213H39.4797C39.9658 33.3213 40.3597 33.7153 40.3597 34.2013V36.8413C40.3597 37.3273 39.9658 37.7213 39.4797 37.7213H12.6398C12.1538 37.7213 11.7598 37.3273 11.7598 36.8413V33.3213Z" fill="#EE2F53"/>
<defs>
<linearGradient id="paint0_linear_119_2308" x1="32.3676" y1="10" x2="32.3676" y2="53.9997" gradientUnits="userSpaceOnUse">
<stop stop-color="#0066B3"/>
<stop offset="0.354167" stop-color="#0066B3"/>
<stop offset="0.6875" stop-color="#EE2F53"/>
<stop offset="1" stop-color="#EE2F53"/>
</linearGradient>
</defs>
</svg>
