<?xml version="1.0" encoding="UTF-8"?>
<!DOCTYPE svg PUBLIC "-//W3C//DTD SVG 1.1//EN" "http://www.w3.org/Graphics/SVG/1.1/DTD/svg11.dtd">
<!-- Creator: CorelDRAW -->
<svg xmlns="http://www.w3.org/2000/svg" xml:space="preserve" width="512px" height="512px" version="1.1" style="shape-rendering:geometricPrecision; text-rendering:geometricPrecision; image-rendering:optimizeQuality; fill-rule:evenodd; clip-rule:evenodd"
viewBox="0 0 512 512"
 xmlns:xlink="http://www.w3.org/1999/xlink"
 xmlns:xodm="http://www.corel.com/coreldraw/odm/2003">
 <defs>
  <style type="text/css">
   <![CDATA[
    .fil0 {fill:white;fill-rule:nonzero}
   ]]>
  </style>
 </defs>
 <g id="Слой_x0020_1">
  <metadata id="CorelCorpID_0Corel-Layer"/>
  <path class="fil0" d="M56.22 427.27c-4.65,0 -8.39,-1.41 -11.22,-4.24 -2.84,-2.82 -4.25,-6.74 -4.25,-11.73l0 -322.43c0,-5.32 1.34,-9.31 4,-11.98 2.65,-2.65 6.32,-3.98 10.98,-3.98 4.99,0 8.82,1.33 11.47,3.98 2.67,2.67 4,6.66 4,11.98l0 310.95 171.69 0c4.99,0 8.74,1.17 11.23,3.5 2.5,2.32 3.74,5.65 3.74,9.98 0,4.65 -1.24,8.15 -3.74,10.48 -2.49,2.32 -6.24,3.49 -11.23,3.49l-186.67 0 0 0z"/>
  <path id="_1" class="fil0" d="M350.2 430.27c-4.99,0 -8.81,-1.42 -11.48,-4.25 -2.66,-2.83 -3.99,-6.9 -3.99,-12.22l0 -169.2 7.49 23.95 -127.77 -174.18c-2.67,-3.66 -3.92,-7.24 -3.75,-10.74 0.16,-3.48 1.49,-6.24 3.99,-8.22 2.5,-2 5.58,-3 9.24,-3 3.65,0 6.9,0.74 9.73,2.24 2.83,1.5 5.4,4.08 7.73,7.74l113.8 155.72 -8.98 0 114.29 -155.72c2.66,-3.66 5.24,-6.24 7.74,-7.74 2.5,-1.5 5.57,-2.24 9.24,-2.24 3.65,0 6.65,1 8.98,3 2.33,1.98 3.57,4.74 3.74,8.22 0.17,3.5 -1.25,7.24 -4.24,11.24l-127.27 173.68 6.98 -23.95 0 169.2c0,10.98 -5.15,16.47 -15.47,16.47l0 0z"/>
 </g>
</svg>
