<svg width="64" height="64" viewBox="0 0 64 64" fill="none" xmlns="http://www.w3.org/2000/svg">
 <rect width="64" height="64" rx="17" fill="#1E1E1E"/>
 <path d="M16.3423 46.7913C15.9389 46.7913 15.6143 46.669 15.3688 46.4234C15.1223 46.1787 15 45.8386 15 45.4056V17.4283C15 16.9667 15.1163 16.6205 15.3471 16.3888C15.577 16.1589 15.8955 16.0435 16.2998 16.0435C16.7328 16.0435 17.0651 16.1589 17.2951 16.3888C17.5267 16.6205 17.6422 16.9667 17.6422 17.4283V44.4095H32.5397C32.9727 44.4095 33.2981 44.511 33.5141 44.7132C33.7311 44.9145 33.8387 45.2034 33.8387 45.5791C33.8387 45.9826 33.7311 46.2863 33.5141 46.4885C33.2981 46.6898 32.9727 46.7913 32.5397 46.7913H16.3423Z" fill="white" stroke="white" stroke-width="2"/>
 <path d="M41.8509 47.0516C41.4179 47.0516 41.0864 46.9283 40.8548 46.6828C40.6239 46.4372 40.5085 46.0841 40.5085 45.6225V30.9409L41.1584 33.0191L30.0718 17.9055C29.8402 17.5879 29.7317 17.2773 29.7464 16.9736C29.7603 16.6716 29.8757 16.4321 30.0927 16.2603C30.3096 16.0868 30.5768 16 30.8944 16C31.2111 16 31.4931 16.0642 31.7387 16.1944C31.9842 16.3245 32.2072 16.5484 32.4094 16.866L42.2839 30.3778H41.5047L51.4216 16.866C51.6524 16.5484 51.8763 16.3245 52.0932 16.1944C52.3101 16.0642 52.5765 16 52.895 16C53.2117 16 53.472 16.0868 53.6742 16.2603C53.8763 16.4321 53.9839 16.6716 53.9987 16.9736C54.0134 17.2773 53.8902 17.6018 53.6308 17.9489L42.5876 33.0191L43.1932 30.9409V45.6225C43.1932 46.5752 42.7463 47.0516 41.8509 47.0516Z" fill="white" stroke="white" stroke-width="2"/>
</svg>
