<svg width="22" height="21" viewBox="0 0 22 21" fill="none" xmlns="http://www.w3.org/2000/svg">
<path d="M6.15083 18.1443L11 15.2437L15.8492 18.1751L14.552 12.6825L18.8143 8.97957L13.1929 8.48585L11 3.30177L8.80708 8.45499L3.18572 8.94871L7.44806 12.6516L6.15083 18.1443ZM11 17.4038L5.25512 20.8597C5.09039 20.9626 4.91536 21.0089 4.73004 20.9986C4.54473 20.9883 4.38 20.9318 4.23586 20.8289C4.09173 20.7261 3.98362 20.5924 3.91155 20.4278C3.83948 20.2632 3.82404 20.078 3.86522 19.8723L5.37867 13.3306L0.313278 8.91786C0.148549 8.77385 0.0507422 8.61442 0.0198555 8.43957C-0.0110309 8.2647 -0.0058831 8.09498 0.0352989 7.93041C0.0764809 7.76583 0.16914 7.62698 0.313278 7.51383C0.457414 7.40068 0.632439 7.33384 0.838348 7.31326L7.54072 6.72696L10.1352 0.555437C10.2175 0.370291 10.3411 0.231432 10.5058 0.138859C10.6706 0.0462861 10.8353 0 11 0C11.1647 0 11.3295 0.0462861 11.4942 0.138859C11.6589 0.231432 11.7825 0.370291 11.8648 0.555437L14.4593 6.72696L21.1617 7.31326C21.3676 7.33384 21.5426 7.40068 21.6867 7.51383C21.8309 7.62698 21.9235 7.76583 21.9647 7.93041C22.0058 8.09498 22.011 8.2647 21.9802 8.43957C21.9493 8.61442 21.8515 8.77385 21.6867 8.91786L16.6214 13.3306L18.1347 19.8723C18.176 20.078 18.1605 20.2632 18.0884 20.4278C18.0163 20.5924 17.9083 20.7261 17.7641 20.8289C17.6201 20.9318 17.4553 20.9883 17.27 20.9986C17.0847 21.0089 16.9096 20.9626 16.7449 20.8597L11 17.4038Z" fill="#ADFF00"/>
</svg>
